<?xml version="1.0" encoding="UTF-8" standalone="no"?>
<!DOCTYPE svg PUBLIC "-//W3C//DTD SVG 1.1//EN" "http://www.w3.org/Graphics/SVG/1.1/DTD/svg11.dtd">
<svg width="800" height="800" viewBox="-200 -200 800 800" xmlns="http://www.w3.org/2000/svg" xmlns:xlink="http://www.w3.org/1999/xlink">
	<path d="M 100 200 L 200 300 300 200 400 300, 500 200 " stroke="black" fill="none" stroke-width="5" />
	<path id="3" 
           stroke="black" fill="none" stroke-width="1"
           d="m -125.57425,-101.00806 0,41.867642" />
    <path
           id="5"
           stroke="black" fill="none" stroke-width="4"
           d="m -108.21058,-117.85786 80.242813,2.56856" />
    <path
           id="6"
           stroke="black" fill="none" stroke-width="8"
           d="m -27.967767,-115.2893 0,56.251624" />
	
	<path
		stroke="black" fill="none" stroke-width="4"
		d="m 333.65749,-63.330788 -0.97669,0.593383 c -3.13295,2.005297 -3.66551,2.429672 -4.74538,3.076972 -0.6854,0.41123 -1.7496,1.011864 -2.43499,1.423094 -1.447,0.863131 -2.69447,1.485472 -4.21513,2.301435 l -2.15899,1.079478 -2.15897,1.028076 -2.15898,0.97667 -2.21038,0.976671 -2.26179,0.873862 -2.21038,0.873864 -2.26178,0.873863 -2.26179,0.822459 -2.31319,0.771056 -2.26178,0.771055 -4.62639,1.490705 -4.57498,1.490711 -4.62637,1.387907 -4.62638,1.387893 -4.62638,1.387908 -4.62638,1.336492 -4.62638,1.285091 -4.62638,1.233689 -4.67778,1.233689 -4.62638,1.182289 -4.67778,1.182287 -4.67778,1.130873 -4.67778,1.079486 -4.67778,1.07947 -4.6778,1.028085 -4.67778,1.028069 -4.72918,0.976668 -4.67778,0.925267 -4.7292,0.925267 -4.72918,0.873866 -4.72918,0.873866 -4.72919,0.82245 -4.72919,0.822464 -4.7292,0.771063 -4.78058,0.771049 -4.7292,0.719647 -4.78058,0.719661 -4.72918,0.668246 -4.7806,0.668246 -4.7806,0.668247 -4.78058,0.616844 -4.7292,0.565443 -4.78058,0.616845 -4.7806,0.514043 -4.78058,0.565428 -4.832,0.514042 -4.7806,0.514042 -4.78059,0.514028 -9.56117,0.925267 -4.7806,0.4112392 -4.832,0.462626 -4.780584,0.3598236 -4.780598,0.4112396 -4.780582,0.3598237 -4.831999,0.3598236 -4.780598,0.3084222 -4.780584,0.3084224 -4.831999,0.3084223 -4.780598,0.2570211 -4.780583,0.257021 -4.831999,0.2056051 -4.780598,0.1542186 -4.831985,0.1542038 -4.780598,0.1542185 -4.831999,0.1027433"
    />
</svg>
